# 3ds Max Wavefront OBJ Exporter v0.97b - (c)2007 guruware
# File Created: 23.04.2023 15:12:19

#
# object f_L
#

v  -6.6408 8.2717 7.0022
v  6.6373 8.2717 7.0022
v  -6.6408 8.2717 -6.9206
v  6.6373 8.2717 -6.9206
v  -7.0097 9.6891 -6.5822
v  -7.0097 9.6891 7.3406
v  -6.6667 10.0000 20.0000
v  6.6667 10.0000 20.0000
v  6.2684 9.6891 7.3406
v  20.0000 10.0000 6.6667
v  20.0000 10.0000 -6.6667
v  6.2684 9.6891 -6.5822
v  -8.1961 -0.0000 7.7958
v  -6.6667 -0.0000 7.7958
v  -8.1961 -0.0000 6.6667
v  -6.6667 -0.0000 6.6667
v  -8.1961 20.0000 7.7958
v  -6.6667 20.0000 7.7958
v  -8.1961 20.0000 6.6667
v  -6.6667 20.0000 6.6667
v  -8.1961 0.0000 -6.6667
v  -6.6667 0.0000 -6.6667
v  -8.1961 0.0000 -7.7958
v  -6.6667 0.0000 -7.7958
v  -8.1961 20.0000 -6.6667
v  -6.6667 20.0000 -6.6667
v  -8.1961 20.0000 -7.7958
v  -6.6667 20.0000 -7.7958
v  6.6667 -0.0000 -6.6667
v  8.1961 -0.0000 -6.6667
v  6.6667 -0.0000 -7.7958
v  8.1961 -0.0000 -7.7958
v  6.6667 20.0000 -6.6667
v  8.1961 20.0000 -6.6667
v  6.6667 20.0000 -7.7958
v  8.1961 20.0000 -7.7958
v  6.6667 0.0000 7.7958
v  8.1961 0.0000 7.7958
v  6.6667 0.0000 6.6667
v  8.1961 0.0000 6.6667
v  6.6667 20.0000 7.7958
v  8.1961 20.0000 7.7958
v  6.6667 20.0000 6.6667
v  8.1961 20.0000 6.6667
v  -6.6667 8.3797 20.0000
v  6.6667 8.3797 20.0000
v  20.0000 8.3797 6.6667
v  20.0000 8.3797 -6.6667
# 48 vertices

vn 0.0000 1.0000 -0.0000
vn 0.0000 1.0000 -0.0000
vn 0.0000 1.0000 -0.0000
vn 0.0000 1.0000 -0.0000
vn 0.0000 1.0000 -0.0000
vn 0.0000 1.0000 -0.0000
vn 0.0000 0.9997 -0.0246
vn 0.0000 0.9997 -0.0246
vn 0.0000 0.9997 -0.0246
vn 0.0000 0.9997 -0.0246
vn 0.0000 0.9997 -0.0246
vn 0.0000 0.9997 -0.0246
vn -0.0226 0.9997 -0.0000
vn -0.0226 0.9997 -0.0000
vn -0.0226 0.9997 -0.0000
vn -0.0226 0.9997 -0.0000
vn -0.0226 0.9997 -0.0000
vn -0.0226 0.9997 -0.0000
vn -0.9678 -0.2519 -0.0000
vn -0.9678 -0.2519 -0.0000
vn -0.9678 -0.2519 -0.0000
vn -0.9678 -0.2519 -0.0000
vn -0.9678 -0.2519 -0.0000
vn -0.9678 -0.2519 -0.0000
vn -1.0000 0.0000 -0.0020
vn -1.0000 0.0000 -0.0020
vn -1.0000 0.0000 -0.0020
vn -0.9653 -0.2590 0.0325
vn -0.9653 -0.2590 0.0325
vn -0.9653 -0.2590 0.0325
vn 0.9675 0.2528 -0.0043
vn 0.9675 0.2528 -0.0043
vn 0.9675 0.2528 -0.0043
vn 0.9995 0.0000 -0.0314
vn 0.9995 0.0000 -0.0314
vn 0.9995 0.0000 -0.0314
vn 0.0251 0.0000 0.9997
vn 0.0251 0.0000 0.9997
vn 0.0251 0.0000 0.9997
vn 0.0528 -0.2189 0.9743
vn 0.0528 -0.2189 0.9743
vn 0.0528 -0.2189 0.9743
vn 0.0166 0.2363 -0.9715
vn 0.0166 0.2363 -0.9715
vn 0.0166 0.2363 -0.9715
vn -0.0062 0.0000 -1.0000
vn -0.0062 0.0000 -1.0000
vn -0.0062 0.0000 -1.0000
vn 0.0000 0.2322 -0.9727
vn 0.0000 0.2322 -0.9727
vn 0.0000 0.2322 -0.9727
vn 0.0000 0.2322 -0.9727
vn 0.0000 0.2322 -0.9727
vn 0.0000 0.2322 -0.9727
vn 0.0000 -1.0000 0.0083
vn 0.0000 -1.0000 0.0083
vn 0.0000 -1.0000 0.0083
vn -0.0000 -1.0000 0.0083
vn -0.0000 -1.0000 0.0083
vn -0.0000 -1.0000 0.0083
vn 0.0000 -1.0000 -0.0000
vn 0.0000 -1.0000 -0.0000
vn 0.0000 -1.0000 -0.0000
vn 0.0000 -1.0000 -0.0000
vn 0.0000 -1.0000 -0.0000
vn 0.0000 -1.0000 -0.0000
vn 0.0081 -1.0000 -0.0000
vn 0.0081 -1.0000 -0.0000
vn 0.0081 -1.0000 -0.0000
vn 0.0081 -1.0000 -0.0000
vn 0.0081 -1.0000 -0.0000
vn 0.0081 -1.0000 -0.0000
vn 0.0000 0.0000 1.0000
vn 0.0000 0.0000 1.0000
vn 0.0000 0.0000 1.0000
vn 0.0000 0.0000 1.0000
vn 0.0000 0.0000 1.0000
vn 0.0000 0.0000 1.0000
vn 1.0000 0.0000 -0.0000
vn 1.0000 0.0000 -0.0000
vn 1.0000 0.0000 -0.0000
vn 1.0000 0.0000 -0.0000
vn 1.0000 0.0000 -0.0000
vn 1.0000 0.0000 -0.0000
vn 0.0000 0.0000 -1.0000
vn 0.0000 0.0000 -1.0000
vn 0.0000 0.0000 -1.0000
vn 0.0000 0.0000 -1.0000
vn 0.0000 0.0000 -1.0000
vn 0.0000 0.0000 -1.0000
vn -1.0000 -0.0000 -0.0000
vn -1.0000 -0.0000 -0.0000
vn -1.0000 -0.0000 -0.0000
vn -1.0000 -0.0000 -0.0000
vn -1.0000 -0.0000 -0.0000
vn -1.0000 -0.0000 -0.0000
vn 0.0000 -0.0000 1.0000
vn 0.0000 -0.0000 1.0000
vn 0.0000 -0.0000 1.0000
vn 0.0000 -0.0000 1.0000
vn 0.0000 -0.0000 1.0000
vn 0.0000 -0.0000 1.0000
vn 1.0000 -0.0000 -0.0000
vn 1.0000 -0.0000 -0.0000
vn 1.0000 -0.0000 -0.0000
vn 1.0000 -0.0000 -0.0000
vn 1.0000 -0.0000 -0.0000
vn 1.0000 -0.0000 -0.0000
vn 0.0000 0.0000 -1.0000
vn 0.0000 0.0000 -1.0000
vn 0.0000 0.0000 -1.0000
vn 0.0000 0.0000 -1.0000
vn 0.0000 0.0000 -1.0000
vn 0.0000 0.0000 -1.0000
vn -1.0000 0.0000 -0.0000
vn -1.0000 0.0000 -0.0000
vn -1.0000 0.0000 -0.0000
vn -1.0000 0.0000 -0.0000
vn -1.0000 0.0000 -0.0000
vn -1.0000 0.0000 -0.0000
vn 0.0000 -0.0000 1.0000
vn 0.0000 -0.0000 1.0000
vn 0.0000 -0.0000 1.0000
vn 0.0000 -0.0000 1.0000
vn 0.0000 -0.0000 1.0000
vn 0.0000 -0.0000 1.0000
vn 1.0000 0.0000 -0.0000
vn 1.0000 0.0000 -0.0000
vn 1.0000 0.0000 -0.0000
vn 1.0000 0.0000 -0.0000
vn 1.0000 0.0000 -0.0000
vn 1.0000 0.0000 -0.0000
vn 0.0000 0.0000 -1.0000
vn 0.0000 0.0000 -1.0000
vn 0.0000 0.0000 -1.0000
vn 0.0000 0.0000 -1.0000
vn 0.0000 0.0000 -1.0000
vn 0.0000 0.0000 -1.0000
vn -1.0000 0.0000 -0.0000
vn -1.0000 0.0000 -0.0000
vn -1.0000 0.0000 -0.0000
vn -1.0000 0.0000 -0.0000
vn -1.0000 0.0000 -0.0000
vn -1.0000 0.0000 -0.0000
vn 0.0000 -0.0000 1.0000
vn 0.0000 -0.0000 1.0000
vn 0.0000 -0.0000 1.0000
vn 0.0000 -0.0000 1.0000
vn 0.0000 -0.0000 1.0000
vn 0.0000 -0.0000 1.0000
vn 1.0000 0.0000 -0.0000
vn 1.0000 0.0000 -0.0000
vn 1.0000 0.0000 -0.0000
vn 1.0000 0.0000 -0.0000
vn 1.0000 0.0000 -0.0000
vn 1.0000 0.0000 -0.0000
vn 0.0000 0.0000 -1.0000
vn 0.0000 0.0000 -1.0000
vn 0.0000 0.0000 -1.0000
vn 0.0000 0.0000 -1.0000
vn 0.0000 0.0000 -1.0000
vn 0.0000 0.0000 -1.0000
vn -1.0000 -0.0000 -0.0000
vn -1.0000 -0.0000 -0.0000
vn -1.0000 -0.0000 -0.0000
vn -1.0000 -0.0000 -0.0000
vn -1.0000 -0.0000 -0.0000
vn -1.0000 -0.0000 -0.0000
vn 0.0000 0.0000 1.0000
vn 0.0000 0.0000 1.0000
vn 0.0000 0.0000 1.0000
vn 0.0000 0.0000 1.0000
vn 0.0000 0.0000 1.0000
vn 0.0000 0.0000 1.0000
vn 1.0000 0.0000 -0.0000
vn 1.0000 0.0000 -0.0000
vn 1.0000 0.0000 -0.0000
vn 1.0000 0.0000 -0.0000
vn 1.0000 0.0000 -0.0000
vn 1.0000 0.0000 -0.0000
# 180 vertex normals

vt 0.0000 0.0000 0.0000
vt 1.0000 0.0000 0.0000
vt 0.0000 1.0000 0.0000
vt 1.0000 1.0000 0.0000
vt 0.0000 0.0000 0.0000
vt 1.0000 0.0000 0.0000
vt 1.0000 0.0000 0.0000
vt 1.0000 1.0000 0.0000
vt 0.0000 1.0000 0.0000
vt 0.0000 0.0000 0.0000
vt 0.0000 0.0000 0.0000
vt 1.0000 0.0000 0.0000
vt 1.0000 0.0000 0.0000
vt 1.0000 0.0000 0.0000
vt 1.0000 1.0000 0.0000
vt 1.0000 1.0000 0.0000
vt 0.0000 0.0000 0.0000
vt 0.0000 0.0000 0.0000
vt 0.0000 1.0000 0.0000
vt 0.0000 0.0000 0.0000
vt 1.0000 1.0000 0.0000
vt 1.0000 1.0000 0.0000
vt 0.0000 0.0000 0.0000
vt 1.0000 0.0000 0.0000
vt 0.0000 1.0000 0.0000
vt 1.0000 1.0000 0.0000
vt 0.0000 0.0000 0.0000
vt 1.0000 0.0000 0.0000
vt 0.0000 1.0000 0.0000
vt 1.0000 1.0000 0.0000
vt 0.0000 0.0000 0.0000
vt 1.0000 0.0000 0.0000
vt 0.0000 1.0000 0.0000
vt 1.0000 1.0000 0.0000
vt 0.0000 0.0000 0.0000
vt 1.0000 0.0000 0.0000
vt 0.0000 1.0000 0.0000
vt 1.0000 1.0000 0.0000
vt 0.0000 0.0000 0.0000
vt 1.0000 0.0000 0.0000
vt 0.0000 1.0000 0.0000
vt 1.0000 1.0000 0.0000
vt 0.0000 0.0000 0.0000
vt 1.0000 0.0000 0.0000
vt 0.0000 1.0000 0.0000
vt 1.0000 1.0000 0.0000
vt 0.0000 0.0000 0.0000
vt 1.0000 0.0000 0.0000
vt 0.0000 1.0000 0.0000
vt 1.0000 1.0000 0.0000
vt 0.0000 0.0000 0.0000
vt 1.0000 0.0000 0.0000
vt 0.0000 1.0000 0.0000
vt 1.0000 1.0000 0.0000
vt 0.0000 0.0000 0.0000
vt 1.0000 0.0000 0.0000
vt 0.0000 1.0000 0.0000
vt 1.0000 1.0000 0.0000
vt 0.0000 0.0000 0.0000
vt 1.0000 0.0000 0.0000
vt 0.0000 1.0000 0.0000
vt 1.0000 1.0000 0.0000
vt 0.0000 0.0000 0.0000
vt 1.0000 0.0000 0.0000
vt 0.0000 1.0000 0.0000
vt 1.0000 1.0000 0.0000
vt 0.0000 0.0000 0.0000
vt 1.0000 0.0000 0.0000
vt 0.0000 1.0000 0.0000
vt 1.0000 1.0000 0.0000
vt 0.0000 0.0000 0.0000
vt 1.0000 0.0000 0.0000
vt 0.0000 1.0000 0.0000
vt 1.0000 1.0000 0.0000
vt 0.0000 0.0000 0.0000
vt 1.0000 0.0000 0.0000
vt 0.0000 1.0000 0.0000
vt 1.0000 1.0000 0.0000
vt 0.0000 0.0000 0.0000
vt 1.0000 0.0000 0.0000
vt 0.0000 1.0000 0.0000
vt 1.0000 1.0000 0.0000
vt 0.0000 0.0000 0.0000
vt 1.0000 0.0000 0.0000
vt 0.0000 1.0000 0.0000
vt 1.0000 1.0000 0.0000
vt 0.0000 0.0000 0.0000
vt 1.0000 0.0000 0.0000
vt 1.0000 0.0000 0.0000
vt 1.0000 1.0000 0.0000
# 90 texture coords

g f_L
s 1
f 6/10/1 9/13/2 12/16/3 
f 12/16/4 5/9/5 6/10/6 
s off
f 9/13/7 6/10/8 7/11/9 
f 7/11/10 8/12/11 9/13/12 
f 12/16/13 9/13/14 10/14/15 
f 10/14/16 11/15/17 12/16/18 
f 3/3/19 1/1/20 6/10/21 
f 6/10/22 5/9/23 3/3/24 
f 1/1/25 45/5/26 7/11/27 
f 7/11/28 6/10/29 1/1/30 
f 46/6/31 2/2/32 9/13/33 
f 9/13/34 8/12/35 46/6/36 
f 2/2/37 47/7/38 10/14/39 
f 10/14/40 9/13/41 2/2/42 
f 48/8/43 4/4/44 12/16/45 
f 12/16/46 11/15/47 48/8/48 
f 4/4/49 3/3/50 5/9/51 
f 5/9/52 12/16/53 4/4/54 
f 45/5/55 1/1/56 2/17/57 
f 2/17/58 46/18/59 45/5/60 
f 1/1/61 3/3/62 4/19/63 
f 4/19/64 2/20/65 1/1/66 
f 4/4/67 48/8/68 47/21/69 
f 47/21/70 2/22/71 4/4/72 
s 8
f 13/23/73 14/24/74 18/26/75 
f 18/26/76 17/25/77 13/23/78 
s 16
f 14/27/79 16/28/80 20/30/81 
f 20/30/82 18/29/83 14/27/84 
s 32
f 16/31/85 15/32/86 19/34/87 
f 19/34/88 20/33/89 16/31/90 
s 64
f 15/35/91 13/36/92 17/38/93 
f 17/38/94 19/37/95 15/35/96 
s 8
f 21/39/97 22/40/98 26/42/99 
f 26/42/100 25/41/101 21/39/102 
s 16
f 22/43/103 24/44/104 28/46/105 
f 28/46/106 26/45/107 22/43/108 
s 32
f 24/47/109 23/48/110 27/50/111 
f 27/50/112 28/49/113 24/47/114 
s 64
f 23/51/115 21/52/116 25/54/117 
f 25/54/118 27/53/119 23/51/120 
s 8
f 29/55/121 30/56/122 34/58/123 
f 34/58/124 33/57/125 29/55/126 
s 16
f 30/59/127 32/60/128 36/62/129 
f 36/62/130 34/61/131 30/59/132 
s 32
f 32/63/133 31/64/134 35/66/135 
f 35/66/136 36/65/137 32/63/138 
s 64
f 31/67/139 29/68/140 33/70/141 
f 33/70/142 35/69/143 31/67/144 
s 8
f 37/71/145 38/72/146 42/74/147 
f 42/74/148 41/73/149 37/71/150 
s 16
f 38/75/151 40/76/152 44/78/153 
f 44/78/154 42/77/155 38/75/156 
s 32
f 40/79/157 39/80/158 43/82/159 
f 43/82/160 44/81/161 40/79/162 
s 64
f 39/83/163 37/84/164 41/86/165 
f 41/86/166 43/85/167 39/83/168 
s off
f 8/12/169 7/11/170 45/87/171 
f 45/87/172 46/88/173 8/12/174 
f 11/15/175 10/14/176 47/89/177 
f 47/89/178 48/90/179 11/15/180 
# 60 faces

