# 3ds Max Wavefront OBJ Exporter v0.97b - (c)2007 guruware
# File Created: 29.04.2023 16:19:55

#
# object f_YS
#

v  -6.2425 -1.4174 -7.0051
v  7.0355 -1.4174 -7.0051
v  -6.6114 0.0000 -6.6667
v  6.6667 0.0000 -6.6667
v  7.0355 8.5826 -20.0572
v  -6.2425 8.5826 -20.0848
v  -6.6667 10.0000 -20.0000
v  6.6667 10.0000 -20.0000
# 8 vertices

vn 0.0021 0.0603 -0.9982
vn 0.0021 0.0603 -0.9982
vn 0.0021 0.0603 -0.9982
vn -0.0000 0.0403 -0.9992
vn -0.0000 0.0403 -0.9992
vn -0.0000 0.0403 -0.9992
vn 0.0000 -0.7944 -0.6074
vn 0.0000 -0.7944 -0.6074
vn 0.0000 -0.7944 -0.6074
vn 0.0013 -0.7938 -0.6082
vn 0.0013 -0.7938 -0.6082
vn 0.0013 -0.7938 -0.6082
vn -0.9643 -0.2137 -0.1563
vn -0.9643 -0.2137 -0.1563
vn -0.9643 -0.2137 -0.1563
vn -0.9408 -0.2692 -0.2058
vn -0.9408 -0.2692 -0.2058
vn -0.9408 -0.2692 -0.2058
vn 0.0000 0.8000 0.6000
vn 0.0000 0.8000 0.6000
vn 0.0000 0.8000 0.6000
vn -0.0000 0.8000 0.6000
vn -0.0000 0.8000 0.6000
vn -0.0000 0.8000 0.6000
vn 0.9637 0.2120 0.1624
vn 0.9637 0.2120 0.1624
vn 0.9637 0.2120 0.1624
vn 0.9536 0.2409 0.1807
vn 0.9536 0.2409 0.1807
vn 0.9536 0.2409 0.1807
# 30 vertex normals

vt 0.0000 1.0000 0.0000
vt 1.0000 1.0000 0.0000
vt 0.0000 1.0000 0.0000
vt 1.0000 1.0000 0.0000
vt 1.0000 1.0000 0.0000
vt 0.0000 1.0000 0.0000
vt 0.0000 1.0000 0.0000
vt 1.0000 1.0000 0.0000
# 8 texture coords

g f_YS
s off
f 5/5/1 6/6/2 7/7/3 
f 7/7/4 8/8/5 5/5/6 
f 2/2/7 1/1/8 6/6/9 
f 6/6/10 5/5/11 2/2/12 
f 1/1/13 3/3/14 7/7/15 
f 7/7/16 6/6/17 1/1/18 
f 3/3/19 4/4/20 8/8/21 
f 8/8/22 7/7/23 3/3/24 
f 4/4/25 2/2/26 5/5/27 
f 5/5/28 8/8/29 4/4/30 
# 10 faces

