# 3ds Max Wavefront OBJ Exporter v0.97b - (c)2007 guruware
# File Created: 24.04.2023 09:52:47

#
# object f_I
#

v  -6.6408 8.2717 7.0022
v  6.6373 8.2717 7.0022
v  -6.6408 8.2717 -6.9206
v  6.6373 8.2717 -6.9206
v  -7.0097 9.6891 -6.5822
v  -7.0097 9.6891 7.3406
v  -6.6667 10.0000 20.0000
v  6.6667 10.0000 20.0000
v  6.2684 9.6891 7.3406
v  6.2684 9.6891 -6.5822
v  -8.1961 -0.0000 7.7958
v  -6.6667 -0.0000 7.7958
v  -8.1961 -0.0000 6.6667
v  -6.6667 -0.0000 6.6667
v  -8.1961 20.0000 7.7958
v  -6.6667 20.0000 7.7958
v  -8.1961 20.0000 6.6667
v  -6.6667 20.0000 6.6667
v  -8.1961 0.0000 -6.6667
v  -6.6667 0.0000 -6.6667
v  -8.1961 0.0000 -7.7958
v  -6.6667 0.0000 -7.7958
v  -8.1961 20.0000 -6.6667
v  -6.6667 20.0000 -6.6667
v  -8.1961 20.0000 -7.7958
v  -6.6667 20.0000 -7.7958
v  6.6667 -0.0000 -6.6667
v  8.1961 -0.0000 -6.6667
v  6.6667 -0.0000 -7.7958
v  8.1961 -0.0000 -7.7958
v  6.6667 20.0000 -6.6667
v  8.1961 20.0000 -6.6667
v  6.6667 20.0000 -7.7958
v  8.1961 20.0000 -7.7958
v  6.6667 0.0000 7.7958
v  8.1961 0.0000 7.7958
v  6.6667 0.0000 6.6667
v  8.1961 0.0000 6.6667
v  6.6667 20.0000 7.7958
v  8.1961 20.0000 7.7958
v  6.6667 20.0000 6.6667
v  8.1961 20.0000 6.6667
v  -6.6667 8.3797 20.0000
v  6.6667 8.3797 20.0000
v  7.0355 8.5826 -20.0572
v  -6.2425 8.5826 -20.0848
v  -6.6667 10.0000 -20.0000
v  6.6667 10.0000 -20.0000
# 48 vertices

vn 0.0000 1.0000 -0.0000
vn 0.0000 1.0000 -0.0000
vn 0.0000 1.0000 -0.0000
vn 0.0000 1.0000 -0.0000
vn 0.0000 1.0000 -0.0000
vn 0.0000 1.0000 -0.0000
vn 0.0000 0.9997 -0.0246
vn 0.0000 0.9997 -0.0246
vn 0.0000 0.9997 -0.0246
vn 0.0000 0.9997 -0.0246
vn 0.0000 0.9997 -0.0246
vn 0.0000 0.9997 -0.0246
vn -0.9678 -0.2519 -0.0000
vn -0.9678 -0.2519 -0.0000
vn -0.9678 -0.2519 -0.0000
vn -0.9678 -0.2519 -0.0000
vn -0.9678 -0.2519 -0.0000
vn -0.9678 -0.2519 -0.0000
vn -1.0000 0.0000 -0.0020
vn -1.0000 0.0000 -0.0020
vn -1.0000 0.0000 -0.0020
vn -0.9653 -0.2590 0.0325
vn -0.9653 -0.2590 0.0325
vn -0.9653 -0.2590 0.0325
vn 0.9675 0.2528 -0.0043
vn 0.9675 0.2528 -0.0043
vn 0.9675 0.2528 -0.0043
vn 0.9995 0.0000 -0.0314
vn 0.9995 0.0000 -0.0314
vn 0.9995 0.0000 -0.0314
vn 0.0021 0.0603 -0.9982
vn 0.0021 0.0603 -0.9982
vn 0.0021 0.0603 -0.9982
vn -0.0000 0.0403 -0.9992
vn -0.0000 0.0403 -0.9992
vn -0.0000 0.0403 -0.9992
vn 0.0000 -1.0000 0.0083
vn 0.0000 -1.0000 0.0083
vn 0.0000 -1.0000 0.0083
vn -0.0000 -1.0000 0.0083
vn -0.0000 -1.0000 0.0083
vn -0.0000 -1.0000 0.0083
vn 0.0000 -1.0000 -0.0000
vn 0.0000 -1.0000 -0.0000
vn 0.0000 -1.0000 -0.0000
vn 0.0000 -1.0000 -0.0000
vn 0.0000 -1.0000 -0.0000
vn 0.0000 -1.0000 -0.0000
vn 0.0000 0.0000 1.0000
vn 0.0000 0.0000 1.0000
vn 0.0000 0.0000 1.0000
vn 0.0000 0.0000 1.0000
vn 0.0000 0.0000 1.0000
vn 0.0000 0.0000 1.0000
vn 1.0000 0.0000 -0.0000
vn 1.0000 0.0000 -0.0000
vn 1.0000 0.0000 -0.0000
vn 1.0000 0.0000 -0.0000
vn 1.0000 0.0000 -0.0000
vn 1.0000 0.0000 -0.0000
vn 0.0000 0.0000 -1.0000
vn 0.0000 0.0000 -1.0000
vn 0.0000 0.0000 -1.0000
vn 0.0000 0.0000 -1.0000
vn 0.0000 0.0000 -1.0000
vn 0.0000 0.0000 -1.0000
vn -1.0000 -0.0000 -0.0000
vn -1.0000 -0.0000 -0.0000
vn -1.0000 -0.0000 -0.0000
vn -1.0000 -0.0000 -0.0000
vn -1.0000 -0.0000 -0.0000
vn -1.0000 -0.0000 -0.0000
vn 0.0000 -0.0000 1.0000
vn 0.0000 -0.0000 1.0000
vn 0.0000 -0.0000 1.0000
vn 0.0000 -0.0000 1.0000
vn 0.0000 -0.0000 1.0000
vn 0.0000 -0.0000 1.0000
vn 1.0000 -0.0000 -0.0000
vn 1.0000 -0.0000 -0.0000
vn 1.0000 -0.0000 -0.0000
vn 1.0000 -0.0000 -0.0000
vn 1.0000 -0.0000 -0.0000
vn 1.0000 -0.0000 -0.0000
vn 0.0000 0.0000 -1.0000
vn 0.0000 0.0000 -1.0000
vn 0.0000 0.0000 -1.0000
vn 0.0000 0.0000 -1.0000
vn 0.0000 0.0000 -1.0000
vn 0.0000 0.0000 -1.0000
vn -1.0000 0.0000 -0.0000
vn -1.0000 0.0000 -0.0000
vn -1.0000 0.0000 -0.0000
vn -1.0000 0.0000 -0.0000
vn -1.0000 0.0000 -0.0000
vn -1.0000 0.0000 -0.0000
vn 0.0000 -0.0000 1.0000
vn 0.0000 -0.0000 1.0000
vn 0.0000 -0.0000 1.0000
vn 0.0000 -0.0000 1.0000
vn 0.0000 -0.0000 1.0000
vn 0.0000 -0.0000 1.0000
vn 1.0000 0.0000 -0.0000
vn 1.0000 0.0000 -0.0000
vn 1.0000 0.0000 -0.0000
vn 1.0000 0.0000 -0.0000
vn 1.0000 0.0000 -0.0000
vn 1.0000 0.0000 -0.0000
vn 0.0000 0.0000 -1.0000
vn 0.0000 0.0000 -1.0000
vn 0.0000 0.0000 -1.0000
vn 0.0000 0.0000 -1.0000
vn 0.0000 0.0000 -1.0000
vn 0.0000 0.0000 -1.0000
vn -1.0000 0.0000 -0.0000
vn -1.0000 0.0000 -0.0000
vn -1.0000 0.0000 -0.0000
vn -1.0000 0.0000 -0.0000
vn -1.0000 0.0000 -0.0000
vn -1.0000 0.0000 -0.0000
vn 0.0000 -0.0000 1.0000
vn 0.0000 -0.0000 1.0000
vn 0.0000 -0.0000 1.0000
vn 0.0000 -0.0000 1.0000
vn 0.0000 -0.0000 1.0000
vn 0.0000 -0.0000 1.0000
vn 1.0000 0.0000 -0.0000
vn 1.0000 0.0000 -0.0000
vn 1.0000 0.0000 -0.0000
vn 1.0000 0.0000 -0.0000
vn 1.0000 0.0000 -0.0000
vn 1.0000 0.0000 -0.0000
vn 0.0000 0.0000 -1.0000
vn 0.0000 0.0000 -1.0000
vn 0.0000 0.0000 -1.0000
vn 0.0000 0.0000 -1.0000
vn 0.0000 0.0000 -1.0000
vn 0.0000 0.0000 -1.0000
vn -1.0000 -0.0000 -0.0000
vn -1.0000 -0.0000 -0.0000
vn -1.0000 -0.0000 -0.0000
vn -1.0000 -0.0000 -0.0000
vn -1.0000 -0.0000 -0.0000
vn -1.0000 -0.0000 -0.0000
vn 0.0000 0.0000 1.0000
vn 0.0000 0.0000 1.0000
vn 0.0000 0.0000 1.0000
vn 0.0000 0.0000 1.0000
vn 0.0000 0.0000 1.0000
vn 0.0000 0.0000 1.0000
vn 0.0000 -0.9997 -0.0236
vn 0.0000 -0.9997 -0.0236
vn 0.0000 -0.9997 -0.0236
vn 0.0000 -0.9997 -0.0237
vn 0.0000 -0.9997 -0.0237
vn 0.0000 -0.9997 -0.0237
vn -0.9691 -0.2449 -0.0304
vn -0.9691 -0.2449 -0.0304
vn -0.9691 -0.2449 -0.0304
vn -0.9580 -0.2845 -0.0357
vn -0.9580 -0.2845 -0.0357
vn -0.9580 -0.2845 -0.0357
vn 0.0000 0.9997 0.0232
vn 0.0000 0.9997 0.0232
vn 0.0000 0.9997 0.0232
vn -0.0000 0.9997 0.0232
vn -0.0000 0.9997 0.0232
vn -0.0000 0.9997 0.0232
vn 0.9692 0.2438 0.0352
vn 0.9692 0.2438 0.0352
vn 0.9692 0.2438 0.0352
vn 0.9675 0.2504 0.0345
vn 0.9675 0.2504 0.0345
vn 0.9675 0.2504 0.0345
# 174 vertex normals

vt 0.0000 0.0000 0.0000
vt 1.0000 0.0000 0.0000
vt 0.0000 1.0000 0.0000
vt 1.0000 1.0000 0.0000
vt 0.0000 0.0000 0.0000
vt 1.0000 0.0000 0.0000
vt 0.0000 1.0000 0.0000
vt 0.0000 0.0000 0.0000
vt 0.0000 0.0000 0.0000
vt 1.0000 0.0000 0.0000
vt 1.0000 0.0000 0.0000
vt 1.0000 1.0000 0.0000
vt 0.0000 0.0000 0.0000
vt 0.0000 0.0000 0.0000
vt 0.0000 1.0000 0.0000
vt 0.0000 0.0000 0.0000
vt 0.0000 0.0000 0.0000
vt 1.0000 0.0000 0.0000
vt 0.0000 1.0000 0.0000
vt 1.0000 1.0000 0.0000
vt 0.0000 0.0000 0.0000
vt 1.0000 0.0000 0.0000
vt 0.0000 1.0000 0.0000
vt 1.0000 1.0000 0.0000
vt 0.0000 0.0000 0.0000
vt 1.0000 0.0000 0.0000
vt 0.0000 1.0000 0.0000
vt 1.0000 1.0000 0.0000
vt 0.0000 0.0000 0.0000
vt 1.0000 0.0000 0.0000
vt 0.0000 1.0000 0.0000
vt 1.0000 1.0000 0.0000
vt 0.0000 0.0000 0.0000
vt 1.0000 0.0000 0.0000
vt 0.0000 1.0000 0.0000
vt 1.0000 1.0000 0.0000
vt 0.0000 0.0000 0.0000
vt 1.0000 0.0000 0.0000
vt 0.0000 1.0000 0.0000
vt 1.0000 1.0000 0.0000
vt 0.0000 0.0000 0.0000
vt 1.0000 0.0000 0.0000
vt 0.0000 1.0000 0.0000
vt 1.0000 1.0000 0.0000
vt 0.0000 0.0000 0.0000
vt 1.0000 0.0000 0.0000
vt 0.0000 1.0000 0.0000
vt 1.0000 1.0000 0.0000
vt 0.0000 0.0000 0.0000
vt 1.0000 0.0000 0.0000
vt 0.0000 1.0000 0.0000
vt 1.0000 1.0000 0.0000
vt 0.0000 0.0000 0.0000
vt 1.0000 0.0000 0.0000
vt 0.0000 1.0000 0.0000
vt 1.0000 1.0000 0.0000
vt 0.0000 0.0000 0.0000
vt 1.0000 0.0000 0.0000
vt 0.0000 1.0000 0.0000
vt 1.0000 1.0000 0.0000
vt 0.0000 0.0000 0.0000
vt 1.0000 0.0000 0.0000
vt 0.0000 1.0000 0.0000
vt 1.0000 1.0000 0.0000
vt 0.0000 0.0000 0.0000
vt 1.0000 0.0000 0.0000
vt 0.0000 1.0000 0.0000
vt 1.0000 1.0000 0.0000
vt 0.0000 0.0000 0.0000
vt 1.0000 0.0000 0.0000
vt 0.0000 1.0000 0.0000
vt 1.0000 1.0000 0.0000
vt 0.0000 0.0000 0.0000
vt 1.0000 0.0000 0.0000
vt 0.0000 1.0000 0.0000
vt 1.0000 1.0000 0.0000
vt 0.0000 0.0000 0.0000
vt 1.0000 0.0000 0.0000
vt 0.0000 1.0000 0.0000
vt 1.0000 1.0000 0.0000
vt 0.0000 0.0000 0.0000
vt 1.0000 0.0000 0.0000
vt 1.0000 1.0000 0.0000
vt 0.0000 1.0000 0.0000
vt 0.0000 1.0000 0.0000
vt 1.0000 1.0000 0.0000
# 86 texture coords

g f_I
s 1
f 6/8/1 9/11/2 10/12/3 
f 10/12/4 5/7/5 6/8/6 
s off
f 9/11/7 6/8/8 7/9/9 
f 7/9/10 8/10/11 9/11/12 
f 3/3/13 1/1/14 6/8/15 
f 6/8/16 5/7/17 3/3/18 
f 1/1/19 43/5/20 7/9/21 
f 7/9/22 6/8/23 1/1/24 
f 44/6/25 2/2/26 9/11/27 
f 9/11/28 8/10/29 44/6/30 
f 45/83/31 46/84/32 47/85/33 
f 47/85/34 48/86/35 45/83/36 
f 43/5/37 1/1/38 2/13/39 
f 2/13/40 44/14/41 43/5/42 
f 1/1/43 3/3/44 4/15/45 
f 4/15/46 2/16/47 1/1/48 
s 8
f 11/17/49 12/18/50 16/20/51 
f 16/20/52 15/19/53 11/17/54 
s 16
f 12/21/55 14/22/56 18/24/57 
f 18/24/58 16/23/59 12/21/60 
s 32
f 14/25/61 13/26/62 17/28/63 
f 17/28/64 18/27/65 14/25/66 
s 64
f 13/29/67 11/30/68 15/32/69 
f 15/32/70 17/31/71 13/29/72 
s 8
f 19/33/73 20/34/74 24/36/75 
f 24/36/76 23/35/77 19/33/78 
s 16
f 20/37/79 22/38/80 26/40/81 
f 26/40/82 24/39/83 20/37/84 
s 32
f 22/41/85 21/42/86 25/44/87 
f 25/44/88 26/43/89 22/41/90 
s 64
f 21/45/91 19/46/92 23/48/93 
f 23/48/94 25/47/95 21/45/96 
s 8
f 27/49/97 28/50/98 32/52/99 
f 32/52/100 31/51/101 27/49/102 
s 16
f 28/53/103 30/54/104 34/56/105 
f 34/56/106 32/55/107 28/53/108 
s 32
f 30/57/109 29/58/110 33/60/111 
f 33/60/112 34/59/113 30/57/114 
s 64
f 29/61/115 27/62/116 31/64/117 
f 31/64/118 33/63/119 29/61/120 
s 8
f 35/65/121 36/66/122 40/68/123 
f 40/68/124 39/67/125 35/65/126 
s 16
f 36/69/127 38/70/128 42/72/129 
f 42/72/130 40/71/131 36/69/132 
s 32
f 38/73/133 37/74/134 41/76/135 
f 41/76/136 42/75/137 38/73/138 
s 64
f 37/77/139 35/78/140 39/80/141 
f 39/80/142 41/79/143 37/77/144 
s off
f 8/10/145 7/9/146 43/81/147 
f 43/81/148 44/82/149 8/10/150 
f 4/4/151 3/3/152 46/84/153 
f 46/84/154 45/83/155 4/4/156 
f 3/3/157 5/7/158 47/85/159 
f 47/85/160 46/84/161 3/3/162 
f 5/7/163 10/12/164 48/86/165 
f 48/86/166 47/85/167 5/7/168 
f 10/12/169 4/4/170 45/83/171 
f 45/83/172 48/86/173 10/12/174 
# 58 faces

