# 3ds Max Wavefront OBJ Exporter v0.97b - (c)2007 guruware
# File Created: 28.12.2021 14:06:17

#
# object level_002
#

v  -457.3542 -61.2498 -88.5608
v  -457.3542 0.8618 -88.5608
v  -457.3542 0.8618 -34.3825
v  -457.3542 -61.2498 -34.3825
v  -457.3542 -61.2498 9.5977
v  -457.3542 0.8618 9.5977
v  -457.3542 0.8618 78.1772
v  -457.3542 -61.2498 78.1772
v  -457.3542 54.9912 -88.5609
v  -457.3542 54.9912 -34.3825
v  -457.3542 54.9912 9.5977
v  -457.3542 54.9912 78.1772
v  -399.2786 0.8618 78.1772
v  -399.2786 -61.2498 78.1772
v  -399.2786 54.9912 78.1772
v  -285.2776 -61.2498 78.1772
v  -285.2776 0.8618 78.1772
v  -285.2776 0.8618 9.5977
v  -285.2776 -61.2498 9.5977
v  -285.2776 -61.2498 -34.3825
v  -285.2776 0.8618 -34.3825
v  -285.2776 0.8618 -88.5608
v  -285.2776 -61.2498 -88.5608
v  -285.2776 54.9912 78.1772
v  -285.2776 54.9912 9.5977
v  -285.2776 54.9912 -34.3825
v  -285.2776 54.9912 -88.5608
v  -354.9792 0.8618 -88.5608
v  -354.9792 -61.2498 -88.5608
v  -354.9792 54.9912 -88.5609
v  -457.3542 126.3644 -88.5609
v  -457.3542 126.3644 -34.3825
v  -457.3542 88.7068 -34.3825
v  -457.3542 88.7068 -88.5609
v  -457.3542 126.3644 9.5977
v  -457.3542 88.7068 9.5977
v  -457.3542 126.3644 78.1772
v  -457.3542 88.7068 78.1772
v  -399.2786 126.3644 78.1772
v  -399.2786 114.5738 78.1772
v  -285.2776 126.3644 78.1772
v  -285.2776 126.3644 9.5977
v  -285.2776 88.7068 9.5977
v  -285.2776 88.7068 78.1772
v  -285.2776 126.3644 -34.3825
v  -285.2776 88.7068 -34.3825
v  -285.2776 126.3644 -88.5609
v  -285.2776 88.7068 -88.5608
v  -354.9792 126.3644 -88.5609
v  -354.9792 88.7068 -88.5609
v  -354.9792 -61.2498 78.1772
v  -354.9792 0.8618 78.1772
v  -354.9792 54.9912 78.1772
v  -399.2786 0.8618 -88.5608
v  -399.2786 -61.2498 -88.5608
v  -399.2786 54.9912 -88.5609
v  -354.9793 114.5738 78.1772
v  -354.9792 126.3644 78.1772
v  -399.2786 88.7068 -88.5609
v  -399.2786 126.3644 -88.5609
v  -355.4527 126.3644 -33.8410
v  -399.7047 126.3644 -33.8410
v  -357.3364 126.3644 6.1438
v  -401.0939 126.3644 6.1439
# 64 vertices

vn 1.0000 0.0000 -0.0000
vn -0.0000 -0.0000 -1.0000
vn -0.0000 0.0000 -1.0000
vn -1.0000 0.0000 0.0000
vn -1.0000 -0.0000 -0.0000
vn -1.0000 0.0000 -0.0000
vn -1.0000 -0.0000 0.0000
vn 0.0000 0.0000 1.0000
vn -0.0000 0.0000 1.0000
vn -0.0000 -0.0000 1.0000
vn 1.0000 -0.0000 -0.0000
vn 0.0000 -0.0000 -1.0000
vn 0.0000 0.0000 -1.0000
vn 0.0000 -1.0000 -0.0000
# 14 vertex normals

vt 2.2111 0.2164 -2.5646
vt 2.2111 1.7188 -2.5646
vt 1.0179 1.7188 -2.5646
vt 1.0179 0.2164 -2.5646
vt 0.0494 0.2164 -2.5646
vt 0.0494 1.7188 -2.5646
vt -1.4608 1.7188 -2.5646
vt -1.4608 0.2164 -2.5646
vt 2.2111 3.0281 -2.5646
vt 1.0179 3.0281 -2.5646
vt 0.0494 3.0281 -2.5646
vt -1.4608 3.0281 -2.5646
vt 3.5646 1.7188 2.4608
vt 2.3855 1.7188 2.4608
vt 2.3855 0.2164 2.4608
vt 3.5646 0.2164 2.4608
vt 3.5646 3.0281 2.4608
vt 2.3855 3.0281 2.4608
vt 2.4608 0.2164 0.9291
vt 2.4608 1.7188 0.9291
vt 0.9506 1.7188 0.9291
vt 0.9506 0.2164 0.9291
vt -0.0179 0.2164 0.9291
vt -0.0179 1.7188 0.9291
vt -1.2111 1.7188 0.9291
vt -1.2111 0.2164 0.9291
vt 2.4608 3.0281 0.9291
vt 0.9506 3.0281 0.9291
vt -0.0179 3.0281 0.9291
vt -1.2111 3.0281 0.9291
vt 0.9291 1.7188 -1.2111
vt -0.4860 1.7188 -1.2111
vt -0.4860 0.2164 -1.2111
vt 0.9291 0.2164 -1.2111
vt 0.9291 3.0281 -1.2111
vt -0.4860 3.0281 -1.2111
vt 2.2111 4.7545 -2.5646
vt 1.0179 4.7545 -2.5646
vt 1.0179 3.8436 -2.5646
vt 2.2111 3.8436 -2.5646
vt 0.0494 4.7545 -2.5646
vt 0.0494 3.8436 -2.5646
vt -1.4608 4.7545 -2.5646
vt -1.4608 3.8436 -2.5646
vt 3.5646 4.7545 2.4608
vt 2.3855 4.7545 2.4608
vt 2.3855 4.4693 2.4608
vt 3.5646 3.8436 2.4608
vt 2.4608 4.7545 0.9291
vt 0.9506 4.7545 0.9291
vt 0.9506 3.8436 0.9291
vt 2.4608 3.8436 0.9291
vt -0.0179 4.7545 0.9291
vt -0.0179 3.8436 0.9291
vt -1.2111 4.7545 0.9291
vt -1.2111 3.8436 0.9291
vt 0.9291 4.7545 -1.2111
vt -0.4860 4.7545 -1.2111
vt -0.4860 3.8436 -1.2111
vt 0.9291 3.8436 -1.2111
vt 0.0709 1.7188 2.4608
vt 0.0709 0.2164 2.4608
vt 1.4860 0.2164 2.4608
vt 1.4860 1.7188 2.4608
vt 0.0709 3.0281 2.4608
vt 1.4860 3.0281 2.4608
vt -1.3855 1.7188 -1.2111
vt -1.3855 0.2164 -1.2111
vt -1.3855 3.0281 -1.2111
vt 0.0709 4.7545 2.4608
vt 0.0709 3.8436 2.4608
vt 1.4860 4.4693 2.4608
vt 1.4860 4.7545 2.4608
vt -2.5646 1.7188 -1.2111
vt -2.5646 0.2164 -1.2111
vt -2.5646 3.0281 -1.2111
vt -2.5646 4.7545 -1.2111
vt -2.5646 3.8436 -1.2111
vt -1.3855 3.8436 -1.2111
vt -1.3855 4.7545 -1.2111
vt 2.2111 -0.4860 4.7545
vt 2.2111 0.9291 4.7545
vt 1.0179 0.9291 4.7545
vt 1.0060 -0.4957 4.7545
vt 2.2111 -2.5646 4.7545
vt 2.2111 -1.3855 4.7545
vt 1.0060 -1.3941 4.7545
vt 1.0179 -2.5646 4.7545
vt 0.0494 0.9291 4.7545
vt 0.1255 -0.5339 4.7545
vt 0.1255 -1.4223 4.7545
vt 0.0494 -2.5646 4.7545
vt -1.4608 0.9291 4.7545
vt -1.4608 -0.4860 4.7545
vt -1.4608 -1.3855 4.7545
vt -1.4608 -2.5646 4.7545
# 96 texture coords

g level_002
s 8
f 1/1/1 2/2/1 3/3/1 
f 3/3/1 4/4/1 1/1/1 
f 5/5/1 6/6/1 7/7/1 
f 7/7/1 8/8/1 5/5/1 
f 9/9/1 10/10/1 3/3/1 
f 3/3/1 2/2/1 9/9/1 
f 11/11/1 12/12/1 7/7/1 
f 7/7/1 6/6/1 11/11/1 
s 16
f 7/13/2 13/14/2 14/15/3 
f 14/15/3 8/16/3 7/13/2 
f 12/17/3 15/18/2 13/14/2 
f 13/14/2 7/13/2 12/17/3 
s 32
f 16/19/4 17/20/4 18/21/4 
f 18/21/4 19/22/4 16/19/4 
f 20/23/5 21/24/6 22/25/6 
f 22/25/6 23/26/6 20/23/5 
f 24/27/7 25/28/6 18/21/4 
f 18/21/4 17/20/4 24/27/7 
f 25/28/6 26/29/4 21/24/6 
f 21/24/6 18/21/4 25/28/6 
f 26/29/4 27/30/6 22/25/6 
f 22/25/6 21/24/6 26/29/4 
s 64
f 22/31/8 28/32/9 29/33/8 
f 29/33/8 23/34/8 22/31/8 
f 27/35/10 30/36/9 28/32/9 
f 28/32/9 22/31/8 27/35/10 
s 8
f 31/37/11 32/38/1 33/39/11 
f 33/39/11 34/40/11 31/37/11 
f 32/38/1 35/41/1 36/42/1 
f 36/42/1 33/39/11 32/38/1 
f 35/41/1 37/43/1 38/44/1 
f 38/44/1 36/42/1 35/41/1 
s 16
f 37/45/2 39/46/3 40/47/2 
f 40/47/2 38/48/3 37/45/2 
s 32
f 41/49/6 42/50/4 43/51/6 
f 43/51/6 44/52/6 41/49/6 
f 42/50/4 45/53/5 46/54/6 
f 46/54/6 43/51/6 42/50/4 
f 45/53/5 47/55/7 48/56/6 
f 48/56/6 46/54/6 45/53/5 
s 64
f 47/57/9 49/58/8 50/59/10 
f 50/59/10 48/60/9 47/57/9 
s 8
f 36/42/1 38/44/1 12/12/1 
f 12/12/1 11/11/1 36/42/1 
s 16
f 38/48/3 40/47/2 15/18/2 
f 15/18/2 12/17/3 38/48/3 
s 32
f 44/52/6 43/51/6 25/28/6 
f 25/28/6 24/27/7 44/52/6 
f 46/54/6 48/56/6 27/30/6 
f 27/30/6 26/29/4 46/54/6 
s 64
f 48/60/9 50/59/10 30/36/9 
f 30/36/9 27/35/10 48/60/9 
s off
f 43/51/4 46/54/4 26/29/4 
f 26/29/4 25/28/4 43/51/4 
s 16
f 17/61/3 16/62/3 51/63/3 
f 51/63/3 52/64/12 17/61/3 
f 24/65/13 17/61/3 52/64/12 
f 52/64/12 53/66/12 24/65/13 
s 64
f 54/67/8 55/68/8 29/33/8 
f 29/33/8 28/32/9 54/67/8 
f 56/69/8 54/67/8 28/32/9 
f 28/32/9 30/36/9 56/69/8 
s 16
f 41/70/12 44/71/12 57/72/12 
f 57/72/12 58/73/3 41/70/12 
f 44/71/12 24/65/13 53/66/12 
f 53/66/12 57/72/12 44/71/12 
f 52/64/12 51/63/3 14/15/3 
f 14/15/3 13/14/2 52/64/12 
f 53/66/12 52/64/12 13/14/2 
f 13/14/2 15/18/2 53/66/12 
f 58/73/3 57/72/12 40/47/2 
f 40/47/2 39/46/3 58/73/3 
s 64
f 2/74/8 1/75/8 55/68/8 
f 55/68/8 54/67/8 2/74/8 
f 9/76/8 2/74/8 54/67/8 
f 54/67/8 56/69/8 9/76/8 
f 31/77/8 34/78/8 59/79/8 
f 59/79/8 60/80/8 31/77/8 
s off
f 49/81/14 47/82/14 45/83/14 
f 45/83/14 61/84/14 49/81/14 
f 31/85/14 60/86/14 62/87/14 
f 62/87/14 32/88/14 31/85/14 
f 61/84/14 45/83/14 42/89/14 
f 42/89/14 63/90/14 61/84/14 
f 32/88/14 62/87/14 64/91/14 
f 64/91/14 35/92/14 32/88/14 
f 63/90/14 42/89/14 41/93/14 
f 41/93/14 58/94/14 63/90/14 
f 64/91/14 63/90/14 58/94/14 
f 58/94/14 39/95/14 64/91/14 
f 35/92/14 64/91/14 39/95/14 
f 39/95/14 37/96/14 35/92/14 
# 92 faces

#
# object level_00
#

v  85.7040 -61.2497 71.7069
v  85.7040 -61.2497 5.1100
v  -86.3726 -61.2498 9.5977
v  -86.3726 -61.2497 71.7069
v  85.7040 -61.2497 -21.9639
v  -86.3725 -61.2498 -34.3825
v  85.7040 -61.2497 -95.0312
v  -86.3726 -61.2497 -95.0312
v  85.7040 -12.4197 71.7069
v  85.7040 -12.4197 5.1100
v  85.7040 -12.4197 -21.9639
v  85.7040 -12.4197 -95.0312
v  85.7040 321.4309 71.7069
v  85.7040 321.4309 5.1100
v  85.7040 321.4309 -21.9639
v  85.7040 321.4309 -95.0312
v  -86.3726 -12.4197 -95.0312
v  -86.3726 321.4309 -95.0312
v  -86.3726 0.8618 -34.3825
v  -86.3726 0.8618 9.5977
v  -86.3726 -12.4197 71.7069
v  -86.3726 321.4309 -21.9639
v  -86.3726 321.4309 5.1100
v  -86.3726 321.4309 71.7069
v  -285.2776 -61.2498 -34.3825
v  -285.2776 -61.2498 9.5977
v  -86.3726 -61.2498 -34.3825
v  -285.2776 0.8618 9.5977
v  -285.2776 0.8618 -34.3825
# 29 vertices

vn -0.0000 1.0000 -0.0000
vn -0.0000 1.0000 0.0000
vn 0.0000 1.0000 -0.0000
vn -1.0000 0.0000 -0.0000
vn -0.0000 0.0000 1.0000
vn 1.0000 0.0000 -0.0000
vn 1.0000 -0.0000 0.0000
vn 1.0000 0.0000 0.0000
vn 0.0000 0.0000 -1.0000
vn 0.0000 -0.0000 -1.0000
vn 0.0000 -1.0000 -0.0000
# 11 vertex normals

vt -1.2111 -2.5646 0.2164
vt 0.2555 -2.5646 0.2164
vt 0.1567 0.9291 0.2164
vt -1.2111 0.9291 0.2164
vt 0.8518 -2.5646 0.2164
vt 1.1252 0.9291 0.2164
vt 2.4608 -2.5646 0.2164
vt 2.4608 0.9291 0.2164
vt 2.2111 0.2164 -2.5646
vt 2.2111 1.3975 -2.5646
vt 0.7445 1.3975 -2.5646
vt 0.7445 0.2164 -2.5646
vt 0.1482 1.3975 -2.5646
vt 0.1482 0.2164 -2.5646
vt -1.4608 1.3975 -2.5646
vt -1.4608 0.2164 -2.5646
vt 2.2111 9.4729 -2.5646
vt 0.7445 9.4729 -2.5646
vt 0.1482 9.4729 -2.5646
vt -1.4608 9.4729 -2.5646
vt 3.5646 0.2164 2.4608
vt 3.5646 1.3975 2.4608
vt 0.0709 1.3975 2.4608
vt 0.0709 0.2164 2.4608
vt 3.5646 9.4729 2.4608
vt 0.0709 9.4729 2.4608
vt 2.4608 0.2164 0.9291
vt 2.4608 1.3975 0.9291
vt 1.1252 1.7188 0.9291
vt 1.1252 0.2164 0.9291
vt 0.1567 0.2164 0.9291
vt 0.1567 1.7188 0.9291
vt -1.2111 1.3975 0.9291
vt -1.2111 0.2164 0.9291
vt 2.4608 9.4729 0.9291
vt 0.8518 9.4729 0.9291
vt 0.2555 9.4729 0.9291
vt -1.2111 9.4729 0.9291
vt 0.9291 0.2164 -1.2111
vt 0.9291 1.3975 -1.2111
vt -2.5646 1.3975 -1.2111
vt -2.5646 0.2164 -1.2111
vt 0.9291 9.4729 -1.2111
vt -2.5646 9.4729 -1.2111
vt 1.1252 4.9675 0.2164
vt 0.1567 4.9675 0.2164
vt 4.9675 0.2164 0.1567
vt 4.9675 1.7188 0.1567
vt 0.9291 1.7188 0.1567
vt 0.9291 0.2164 0.1567
vt -3.9675 1.7188 1.1252
vt -3.9675 0.2164 1.1252
vt 0.0709 0.2164 1.1252
vt 0.0709 1.7188 1.1252
vt 0.8433 4.9675 1.7188
vt -0.1252 4.9675 1.7188
vt -0.1252 0.9291 1.7188
vt 0.8433 0.9291 1.7188
# 58 texture coords

g level_00
s 2
f 65/97/15 66/98/16 67/99/16 
f 67/99/16 68/100/17 65/97/15 
f 66/98/16 69/101/16 70/102/16 
f 70/102/16 67/99/16 66/98/16 
f 69/101/16 71/103/17 72/104/16 
f 72/104/16 70/102/16 69/101/16 
s 8
f 65/105/18 73/106/18 74/107/18 
f 74/107/18 66/108/18 65/105/18 
f 66/108/18 74/107/18 75/109/18 
f 75/109/18 69/110/18 66/108/18 
f 69/110/18 75/109/18 76/111/18 
f 76/111/18 71/112/18 69/110/18 
f 73/106/18 77/113/18 78/114/18 
f 78/114/18 74/107/18 73/106/18 
f 74/107/18 78/114/18 79/115/18 
f 79/115/18 75/109/18 74/107/18 
f 75/109/18 79/115/18 80/116/18 
f 80/116/18 76/111/18 75/109/18 
s 16
f 71/117/19 76/118/19 81/119/19 
f 81/119/19 72/120/19 71/117/19 
f 76/118/19 80/121/19 82/122/19 
f 82/122/19 81/119/19 76/118/19 
s 32
f 72/123/20 81/124/20 83/125/20 
f 83/125/20 70/126/20 72/123/20 
f 67/127/21 84/128/21 85/129/21 
f 85/129/21 68/130/22 67/127/21 
f 81/124/20 82/131/22 86/132/22 
f 86/132/22 83/125/20 81/124/20 
f 83/125/20 86/132/22 87/133/22 
f 87/133/22 84/128/21 83/125/20 
f 84/128/21 87/133/22 88/134/22 
f 88/134/22 85/129/21 84/128/21 
s 64
f 68/135/23 85/136/23 73/137/23 
f 73/137/23 65/138/23 68/135/23 
f 85/136/23 88/139/23 77/140/23 
f 77/140/23 73/137/23 85/136/23 
s off
f 89/141/17 90/142/17 67/99/17 
f 67/99/17 91/102/17 89/141/17 
f 90/143/24 92/144/24 84/145/24 
f 84/145/24 67/146/24 90/143/24 
f 93/147/19 89/148/19 91/149/19 
f 91/149/19 83/150/19 93/147/19 
f 92/151/25 93/152/25 83/153/25 
f 83/153/25 84/154/25 92/151/25 
# 44 faces

#
# object level_004
#

v  -457.3542 -61.2498 78.1772
v  -285.2776 -61.2497 78.1773
v  -402.1339 -61.2497 49.4370
v  -457.4090 -61.2498 49.4370
v  -285.2776 -61.2497 -88.5608
v  -402.6965 -61.2497 -54.4090
v  -457.3542 -61.2497 -88.5609
v  -457.9716 -61.2497 -54.4090
# 8 vertices

vn -0.0000 1.0000 0.0000
vn -0.0000 1.0000 -0.0000
vn 0.0000 1.0000 -0.0000
vn 0.0000 1.0000 0.0000
# 4 vertex normals

vt -1.3535 8.4612 0.2164
vt -1.3535 4.9675 0.2164
vt -0.7206 7.3400 0.2164
vt -0.7206 8.4623 0.2164
vt 2.3183 4.9675 0.2164
vt 1.5663 7.3514 0.2164
vt 2.3183 8.4612 0.2164
vt 1.5663 8.4737 0.2164
# 8 texture coords

g level_004
s off
f 94/155/26 95/156/26 96/157/26 
f 96/157/26 97/158/26 94/155/26 
f 95/156/27 98/159/27 99/160/27 
f 99/160/28 96/157/28 95/156/28 
f 98/159/29 100/161/29 101/162/29 
f 101/162/29 99/160/29 98/159/29 
# 6 faces

#
# object level_005
#

v  -355.2984 54.9912 170.8164
v  -355.2984 114.2210 170.8164
v  -354.9793 114.5739 78.1772
v  -354.9793 54.9912 78.1772
v  -399.2786 114.2210 170.8163
v  -399.2786 54.9912 170.8163
v  -399.2786 54.9912 78.1772
v  -399.2786 114.5738 78.1772
# 8 vertices

vn -1.0000 -0.0000 -0.0034
vn 1.0000 0.0000 -0.0000
vn 0.0000 -1.0000 -0.0038
vn -0.0000 1.0000 0.0000
# 4 vertex normals

vt 0.5600 3.7764 0.9506
vt 0.5600 5.2091 0.9506
vt -1.3208 5.2176 0.9576
vt -1.3208 3.7764 0.9576
vt 0.4400 5.2091 -0.0179
vt 0.4400 3.7764 -0.0179
vt 2.3208 3.7764 -0.0179
vt 2.3208 5.2176 -0.0179
vt 0.0494 0.4400 5.2091
vt 1.0179 0.4400 5.2091
vt 1.0179 2.3208 5.2176
vt 0.0424 2.3208 5.2176
vt -0.0179 0.4400 3.7764
vt 0.9506 0.4400 3.7764
vt 0.9576 2.3208 3.7764
vt -0.0179 2.3208 3.7764
# 16 texture coords

g level_005
s off
f 102/163/30 103/164/30 104/165/30 
f 104/165/30 105/166/30 102/163/30 
f 106/167/31 107/168/31 108/169/31 
f 108/169/31 109/170/31 106/167/31 
f 103/171/32 106/172/32 109/173/32 
f 109/173/32 104/174/32 103/171/32 
f 107/175/33 102/176/33 105/177/33 
f 105/177/33 108/178/33 107/175/33 
# 8 faces

#
# object road_wall
#

v  -457.3542 -61.2498 -34.3825
v  -457.3542 0.8618 -34.3825
v  -457.3542 0.8618 9.5977
v  -457.3542 -61.2498 9.5977
v  -457.3542 54.2670 -34.3825
v  -457.3542 54.2670 9.5977
v  -457.3542 88.3801 -88.5609
v  -457.3542 88.3801 -34.3825
v  -457.3542 54.2670 -88.5609
v  -457.3542 88.3801 9.5977
v  -399.2786 126.2651 -88.5609
v  -399.2786 88.3801 -88.5609
v  -354.9792 88.3801 -88.5609
v  -354.9792 126.2651 -88.5609
v  -399.2785 54.2670 -88.5609
v  -354.9792 54.2670 -88.5609
v  -355.4527 126.2651 -33.8410
v  -399.7047 126.2651 -33.8410
v  -357.3364 126.2651 6.1439
v  -401.0939 126.2651 6.1438
# 20 vertices

vn 1.0000 0.0000 0.0000
vn -0.0000 0.0000 1.0000
vn 0.0000 -1.0000 -0.0000
# 3 vertex normals

vt 1.0179 0.2164 -2.5646
vt 1.0179 1.7188 -2.5646
vt 0.0494 1.7188 -2.5646
vt 0.0494 0.2164 -2.5646
vt 1.0179 3.0105 -2.5646
vt 0.0494 3.0105 -2.5646
vt 2.2111 3.8357 -2.5646
vt 1.0179 3.8357 -2.5646
vt 2.2111 3.0105 -2.5646
vt 0.0494 3.8357 -2.5646
vt -1.3855 4.7521 -1.2111
vt -1.3855 3.8357 -1.2111
vt -0.4860 3.8357 -1.2111
vt -0.4860 4.7521 -1.2111
vt -1.3855 3.0105 -1.2111
vt -0.4860 3.0105 -1.2111
vt -2.5646 3.8357 -1.2111
vt -2.5646 3.0105 -1.2111
vt 2.2111 -1.3855 4.7521
vt 2.2111 -0.4860 4.7521
vt 1.0060 -0.4957 4.7521
vt 1.0060 -1.3941 4.7521
vt 0.1255 -0.5339 4.7521
vt 0.1255 -1.4223 4.7521
# 24 texture coords

g road_wall
s 8
f 110/179/34 111/180/34 112/181/34 
f 112/181/34 113/182/34 110/179/34 
f 114/183/34 115/184/34 112/181/34 
f 112/181/34 111/180/34 114/183/34 
f 116/185/34 117/186/34 114/183/34 
f 114/183/34 118/187/34 116/185/34 
f 117/186/34 119/188/34 115/184/34 
f 115/184/34 114/183/34 117/186/34 
s 64
f 120/189/35 121/190/35 122/191/35 
f 122/191/35 123/192/35 120/189/35 
f 121/190/35 124/193/35 125/194/35 
f 125/194/35 122/191/35 121/190/35 
f 116/195/35 118/196/35 124/193/35 
f 124/193/35 121/190/35 116/195/35 
s off
f 120/197/36 123/198/36 126/199/36 
f 126/199/36 127/200/36 120/197/36 
f 127/200/36 126/199/36 128/201/36 
f 128/201/36 129/202/36 127/200/36 
# 18 faces

#
# object level_002_0001
#

v  -419.7090 -54.0745 51.1186
v  -402.6807 -54.0745 51.1186
v  -402.6807 -54.0745 -56.6989
v  -419.7090 -54.0745 -56.6989
v  -402.6807 -62.4359 51.1186
v  -402.6807 -62.4359 -56.6989
v  -419.7090 -62.4359 -56.6989
v  -419.7090 -62.2686 51.1186
v  -402.6807 -62.2686 51.1186
# 9 vertices

vn 0.0000 1.0000 -0.0000
vn 1.0000 0.0000 -0.0000
vn 0.0000 0.0000 -1.0000
vn 0.0000 0.0000 1.0000
# 4 vertex normals

vt 3.6373 0.1044 -0.8304
vt 4.0123 0.1044 -0.8304
vt 4.0123 2.2934 -0.8304
vt 3.6373 2.2934 -0.8304
vt 0.1044 -1.0327 4.0123
vt 2.2934 -1.0327 4.0123
vt 2.2934 -0.8304 4.0123
vt 0.1044 -0.8304 4.0123
vt -3.0123 -1.0327 2.2934
vt -2.6373 -1.0327 2.2934
vt -2.6373 -0.8304 2.2934
vt -3.0123 -0.8304 2.2934
vt 4.0123 -0.8304 0.1044
vt 3.6373 -0.8304 0.1044
vt 3.6373 -1.0286 0.1044
vt 4.0123 -1.0286 0.1044
# 16 texture coords

g level_002_0001
s 4
f 130/203/37 131/204/37 132/205/37 
f 132/205/37 133/206/37 130/203/37 
s 16
f 134/207/38 135/208/38 132/209/38 
f 132/209/38 131/210/38 134/207/38 
s 32
f 135/211/39 136/212/39 133/213/39 
f 133/213/39 132/214/39 135/211/39 
s off
f 131/215/40 130/216/40 137/217/40 
f 137/217/40 138/218/40 131/215/40 
# 8 faces

#
# object level_002_0002
#

v  -432.8898 -45.9747 51.1186
v  -419.9567 -45.9747 51.1186
v  -419.9567 -45.9747 -56.6989
v  -432.8898 -45.9747 -56.6989
v  -419.9567 -54.3361 51.1186
v  -419.9567 -54.3361 -56.6989
v  -432.8898 -54.3361 -56.6989
v  -432.8898 -54.1688 51.1186
v  -419.9567 -54.1688 51.1186
# 9 vertices

vn 0.0000 1.0000 -0.0000
vn 1.0000 0.0000 -0.0000
vn 0.0000 0.0000 -1.0000
vn 0.0000 0.0000 1.0000
# 4 vertex normals

vt 3.7275 0.1044 -0.8304
vt 4.0123 0.1044 -0.8304
vt 4.0123 2.2934 -0.8304
vt 3.7275 2.2934 -0.8304
vt 0.1044 -1.0327 4.0123
vt 2.2934 -1.0327 4.0123
vt 2.2934 -0.8304 4.0123
vt 0.1044 -0.8304 4.0123
vt -3.0123 -1.0327 2.2934
vt -2.7275 -1.0327 2.2934
vt -2.7275 -0.8304 2.2934
vt -3.0123 -0.8304 2.2934
vt 4.0123 -0.8304 0.1044
vt 3.7275 -0.8304 0.1044
vt 3.7275 -1.0286 0.1044
vt 4.0123 -1.0286 0.1044
# 16 texture coords

g level_002_0002
s 4
f 139/219/41 140/220/41 141/221/41 
f 141/221/41 142/222/41 139/219/41 
s 16
f 143/223/42 144/224/42 141/225/42 
f 141/225/42 140/226/42 143/223/42 
s 32
f 144/227/43 145/228/43 142/229/43 
f 142/229/43 141/230/43 144/227/43 
s off
f 140/231/44 139/232/44 146/233/44 
f 146/233/44 147/234/44 140/231/44 
# 8 faces

#
# object level_002_0003
#

v  -490.1068 -38.8057 51.1186
v  -433.0727 -38.8057 51.1186
v  -433.0727 -38.8057 -56.6989
v  -490.1068 -38.8057 -56.6989
v  -433.0727 -47.1672 51.1186
v  -433.0727 -47.1672 -56.6989
v  -490.1068 -47.1672 -56.6989
v  -490.1068 -46.9998 51.1186
v  -433.0727 -46.9998 51.1186
# 9 vertices

vn 0.0000 1.0000 -0.0000
vn 1.0000 0.0000 -0.0000
vn 0.0000 0.0000 -1.0000
vn 0.0000 0.0000 1.0000
# 4 vertex normals

vt 2.7563 0.1044 -0.8304
vt 4.0123 0.1044 -0.8304
vt 4.0123 2.2934 -0.8304
vt 2.7563 2.2934 -0.8304
vt 0.1044 -1.0327 4.0123
vt 2.2934 -1.0327 4.0123
vt 2.2934 -0.8304 4.0123
vt 0.1044 -0.8304 4.0123
vt -3.0123 -1.0327 2.2934
vt -1.7563 -1.0327 2.2934
vt -1.7563 -0.8304 2.2934
vt -3.0123 -0.8304 2.2934
vt 4.0123 -0.8304 0.1044
vt 2.7563 -0.8304 0.1044
vt 2.7563 -1.0286 0.1044
vt 4.0123 -1.0286 0.1044
# 16 texture coords

g level_002_0003
s 4
f 148/235/45 149/236/45 150/237/45 
f 150/237/45 151/238/45 148/235/45 
s 16
f 152/239/46 153/240/46 150/241/46 
f 150/241/46 149/242/46 152/239/46 
s 32
f 153/243/47 154/244/47 151/245/47 
f 151/245/47 150/246/47 153/243/47 
s off
f 149/247/48 148/248/48 155/249/48 
f 155/249/48 156/250/48 149/247/48 
# 8 faces

#
# object level_000_000
#

v  -89.4462 -2.5177 113.2922
v  -26.0346 -2.5177 113.2922
v  -26.0346 -75.8786 -18.8038
v  -89.4462 -75.8786 -18.8038
# 4 vertices

vn 0.0000 0.8742 -0.4855
# 1 vertex normals

vt -1.6852 -1.5695 2.5220
vt -0.2888 -1.5695 2.5220
vt -0.2888 1.1125 0.7475
vt -1.6852 1.1125 0.7475
# 4 texture coords

g level_000_000
s 4
f 157/251/49 158/252/49 159/253/49 
f 159/253/49 160/254/49 157/251/49 
# 2 faces

#
# object level_000_002
#

v  -89.4462 -56.7298 -44.8679
v  -26.0346 -56.7298 -44.8679
v  -26.0346 -56.9002 -95.2862
v  -89.4462 -56.9002 -95.2862
# 4 vertices

vn -0.0000 1.0000 -0.0034
# 1 vertex normals

vt -1.6852 -2.0490 1.2107
vt -0.2888 -2.0490 1.2107
vt -0.2888 -1.0253 1.2066
vt -1.6852 -1.0253 1.2066
# 4 texture coords

g level_000_002
s 4
f 161/255/50 162/256/50 163/257/50 
f 163/257/50 164/258/50 161/255/50 
# 2 faces

#
# object level_000_004
#

v  -89.4462 -52.9431 -60.7704
v  -26.0346 -52.9431 -60.7704
v  -26.0346 -53.1134 -111.1887
v  -89.4462 -53.1134 -111.1887
# 4 vertices

vn -0.0000 1.0000 -0.0034
# 1 vertex normals

vt -1.6852 -2.0490 1.2107
vt -0.2888 -2.0490 1.2107
vt -0.2888 -1.0253 1.2066
vt -1.6852 -1.0253 1.2066
# 4 texture coords

g level_000_004
s 4
f 165/259/51 166/260/51 167/261/51 
f 167/261/51 168/262/51 165/259/51 
# 2 faces

#
# object level_000_005
#

v  -89.4462 -48.7001 -76.4296
v  -26.0346 -48.7001 -76.4296
v  -26.0346 -48.8705 -126.8479
v  -89.4462 -48.8705 -126.8479
# 4 vertices

vn -0.0000 1.0000 -0.0034
# 1 vertex normals

vt -1.6852 -2.0490 1.2107
vt -0.2888 -2.0490 1.2107
vt -0.2888 -1.0253 1.2066
vt -1.6852 -1.0253 1.2066
# 4 texture coords

g level_000_005
s 4
f 169/263/52 170/264/52 171/265/52 
f 171/265/52 172/266/52 169/263/52 
# 2 faces

