# 3ds Max Wavefront OBJ Exporter v0.97b - (c)2007 guruware
# File Created: 30.01.2022 14:21:45

mtllib car_collision.mtl

#
# object car_collision
#

v  -29.4859 -16.6533 15.7423
v  34.4669 -16.6533 15.7423
v  34.4669 24.3694 15.7423
v  -29.4859 24.3694 15.7423
v  34.4669 -14.9825 -9.8431
v  -30.4711 -14.9825 -9.8431
v  -30.4711 26.0363 -9.8431
v  34.4669 26.0363 -9.8431
v  37.9313 -0.2731 15.7423
v  37.9313 -0.2731 -9.8431
v  34.4971 -0.2731 -9.8431
v  34.4971 -0.2731 15.7423
v  41.2127 -4.4917 15.7423
v  41.2127 -4.4917 -9.8431
v  37.0941 -4.4917 -9.8431
v  37.0941 -4.4917 15.7423
v  44.6617 -7.0002 15.7423
v  44.6617 -7.0002 -9.8431
v  40.4123 -7.0002 -9.8431
v  40.4123 -7.0002 15.7423
v  47.8853 -10.2302 15.7423
v  47.8853 -10.2302 -9.8431
v  43.9742 -10.2302 -9.8431
v  43.9742 -10.2302 15.7423
v  -29.4859 3.8491 15.7423
v  34.4669 3.8491 15.7423
v  34.4669 3.8491 -9.8431
v  -29.4859 3.8491 -9.8431
v  -15.1462 4.4131 15.7423
v  -15.1462 4.4131 -9.8431
v  -15.1462 31.0734 -9.8431
v  -15.1462 31.0734 15.7423
# 32 vertices

vn 0.0000 0.0000 1.0000
vn 0.0000 0.0000 -1.0000
vn -0.9993 0.0000 0.0385
vn 0.0000 1.0000 -0.0000
vn 0.0000 1.0000 0.0000
vn 1.0000 0.0000 -0.0000
# 6 vertex normals

vt 0.0000 0.0000 0.0000
vt 1.0000 0.0000 0.0000
vt 1.0000 1.0000 0.0000
vt 0.0000 1.0000 0.0000
# 4 texture coords

g car_collision
usemtl wire_008008136
s 8
f 1/1/1 2/2/1 3/3/1 4/4/1 
s 32
f 5/1/2 6/2/2 7/3/2 8/4/2 
s 64
f 6/1/3 1/2/3 4/3/3 7/4/3 
s 16
f 9/1/4 10/2/4 11/3/4 12/4/4 
f 13/1/4 14/2/4 15/3/4 16/4/4 
f 17/1/4 18/2/4 19/3/4 20/4/4 
f 21/1/5 22/2/5 23/3/5 24/4/5 
s off
f 25/4/4 26/3/4 27/3/4 28/4/4 
s 16
f 29/1/6 30/2/6 31/3/6 32/4/6 
# 9 polygons

