# 3ds Max Wavefront OBJ Exporter v0.97b - (c)2007 guruware
# File Created: 06.03.2022 19:40:24

#
# object car_collision
#

v  -20.0959 -11.6299 -24.7677
v  -20.0959 -11.6299 39.1851
v  -20.0959 29.3928 39.1851
v  -20.0959 29.3928 -24.7677
v  17.6832 -9.9591 39.1851
v  17.6832 -9.9591 -25.7529
v  17.6832 31.0596 -25.7529
v  17.6832 31.0596 39.1851
v  -20.0959 4.7502 42.6495
v  17.6832 4.7502 42.6495
v  17.6832 4.7502 39.2153
v  -20.0959 4.7502 39.2153
v  -20.0959 0.5316 45.9309
v  17.6832 0.5316 45.9309
v  17.6832 0.5316 41.8123
v  -20.0959 0.5316 41.8123
v  -20.0959 -1.9768 49.3799
v  17.6832 -1.9768 49.3799
v  17.6832 -1.9768 45.1305
v  -20.0959 -1.9768 45.1305
v  -20.0959 -5.2068 52.6035
v  17.6832 -5.2068 52.6035
v  17.6832 -5.2068 48.6924
v  -20.0959 -5.2068 48.6924
v  -20.0959 8.8724 -24.7677
v  -20.0959 8.8724 39.1851
v  17.6832 8.8724 39.1851
v  17.6832 8.8724 -24.7677
v  -20.0959 9.4365 -10.4279
v  17.6832 9.4365 -10.4279
v  17.6832 36.0968 -10.4279
v  -20.0959 36.0968 -10.4279
# 32 vertices

vn -1.0000 0.0000 0.0000
vn 1.0000 -0.0000 -0.0000
vn -0.0261 0.0000 -0.9997
vn -0.0000 1.0000 0.0000
vn 0.0000 1.0000 0.0000
vn 0.0000 1.0000 -0.0000
vn 0.0000 0.0000 1.0000
# 7 vertex normals

vt 0.0000 0.0000 0.0000
vt 1.0000 0.0000 0.0000
vt 0.0000 1.0000 0.0000
vt 1.0000 1.0000 0.0000
vt 0.0000 0.0000 0.0000
vt 1.0000 0.0000 0.0000
vt 0.0000 1.0000 0.0000
vt 1.0000 1.0000 0.0000
vt 0.0000 0.0000 0.0000
vt 1.0000 0.0000 0.0000
vt 0.0000 1.0000 0.0000
vt 1.0000 1.0000 0.0000
vt 0.0000 0.0000 0.0000
vt 1.0000 0.0000 0.0000
vt 1.0000 1.0000 0.0000
vt 0.0000 1.0000 0.0000
vt 0.0000 0.0000 0.0000
vt 1.0000 0.0000 0.0000
vt 1.0000 1.0000 0.0000
vt 0.0000 1.0000 0.0000
vt 0.0000 0.0000 0.0000
vt 1.0000 0.0000 0.0000
vt 1.0000 1.0000 0.0000
vt 0.0000 1.0000 0.0000
vt 0.0000 0.0000 0.0000
vt 1.0000 0.0000 0.0000
vt 1.0000 1.0000 0.0000
vt 0.0000 1.0000 0.0000
vt 0.0000 0.0000 0.0000
vt 1.0000 0.0000 0.0000
vt 1.0000 1.0000 0.0000
vt 0.0000 1.0000 0.0000
vt 0.0000 1.0000 0.0000
vt 1.0000 1.0000 0.0000
vt 0.0000 1.0000 0.0000
vt 1.0000 1.0000 0.0000
# 36 texture coords

g car_collision
s 8
f 1/1/1 2/2/1 3/4/1 4/3/1 
s 32
f 5/5/2 6/6/2 7/8/2 8/7/2 
s 64
f 6/9/3 1/10/3 4/12/3 7/11/3 
s 16
f 9/13/4 10/14/4 11/15/4 12/16/4 
f 13/17/5 14/18/6 15/19/5 16/20/5 
f 17/21/4 18/22/4 19/23/4 20/24/4 
f 21/25/4 22/26/4 23/27/4 24/28/4 
s off
f 25/33/4 26/34/4 27/36/4 28/35/4 
s 16
f 29/29/7 30/30/7 31/31/7 32/32/7 
# 9 polygons

