# 3ds Max Wavefront OBJ Exporter v0.97b - (c)2007 guruware
# File Created: 13.01.2022 23:05:09

#
# object level_000_000
#

v  1204.5537 -61.2497 1026.7450
v  1204.5537 -61.2497 5.1100
v  -1565.3713 -61.2498 9.5977
v  -1565.3715 -61.2497 1026.7450
v  1204.5537 -61.2497 -21.9639
v  -1565.3713 -61.2498 -34.3825
v  1204.5537 -61.2497 -910.4673
v  -1565.3715 -61.2497 -910.4674
# 8 vertices

vn -0.0000 1.0000 -0.0000
vn -0.0000 1.0000 0.0000
vn 0.0000 1.0000 -0.0000
# 3 vertex normals

vt -22.2428 -25.2806 0.2164
vt 0.2555 -25.2806 0.2164
vt 0.1567 30.9572 0.2164
vt -22.2428 30.9572 0.2164
vt 0.8517 -25.2806 0.2164
vt 1.1252 30.9572 0.2164
vt 20.4183 -25.2806 0.2164
vt 20.4183 30.9572 0.2164
# 8 texture coords

g level_000_000
s 2
f 1/1/1 2/2/2 3/3/2 
f 3/3/2 4/4/3 1/1/1 
f 2/2/2 5/5/2 6/6/2 
f 6/6/2 3/3/2 2/2/2 
f 5/5/2 7/7/3 8/8/2 
f 8/8/2 6/6/2 5/5/2 
# 6 faces

